<?xml version="1.0" encoding="UTF-8" standalone="no"?>
<!-- Created with Inkscape (http://www.inkscape.org/) -->

<svg
    xmlns:dc="http://purl.org/dc/elements/1.1/"
    xmlns:cc="http://creativecommons.org/ns#"
    xmlns:rdf="http://www.w3.org/1999/02/22-rdf-syntax-ns#"
    xmlns="http://www.w3.org/2000/svg"
    xmlns:sodipodi="http://sodipodi.sourceforge.net/DTD/sodipodi-0.dtd"
    xmlns:inkscape="http://www.inkscape.org/namespaces/inkscape"
    width="2.8222222mm"
    height="2.8222222mm"
    viewBox="0 0 9.9999999 9.9999999"
    id="svg2"
    version="1.1"
    inkscape:version="0.91 r13725"
    sodipodi:docname="tab_border.9.svg"
    inkscape:export-filename="/home/michael/Workspaces/Android/ChromeLikeTabSwitcher/library/src/main/res/drawable-xxxhdpi/tab_border.png"
    inkscape:export-xdpi="2304"
    inkscape:export-ydpi="2304">
  <defs
     id="defs4" />
  <sodipodi:namedview
     id="base"
     pagecolor="#ffffff"
     bordercolor="#666666"
     borderopacity="1.0"
     inkscape:pageopacity="0.0"
     inkscape:pageshadow="2"
     inkscape:zoom="90.509668"
     inkscape:cx="6.0987768"
     inkscape:cy="5.5558155"
     inkscape:document-units="px"
     inkscape:current-layer="layer1"
     showgrid="true"
     inkscape:window-width="2880"
     inkscape:window-height="1509"
     inkscape:window-x="0"
     inkscape:window-y="55"
     inkscape:window-maximized="1"
     fit-margin-top="0"
     fit-margin-left="0"
     fit-margin-right="0"
     fit-margin-bottom="0">
    <inkscape:grid
       type="xygrid"
       id="grid4136"
       originx="-9.9999999"
       originy="-1035" />
  </sodipodi:namedview>
  <metadata
     id="metadata7">
    <rdf:RDF>
      <cc:Work
         rdf:about="">
        <dc:format>image/svg+xml</dc:format>
        <dc:type
           rdf:resource="http://purl.org/dc/dcmitype/StillImage" />
        <dc:title />
      </cc:Work>
    </rdf:RDF>
  </metadata>
  <g
     inkscape:label="Layer 1"
     inkscape:groupmode="layer"
     id="layer1"
     transform="translate(-10,-7.3622046)">
    <path
       style="opacity:1;fill:#ffffff;fill-opacity:1;fill-rule:nonzero;stroke:none;stroke-width:0.80000001;stroke-linejoin:miter;stroke-miterlimit:4;stroke-dasharray:none;stroke-dashoffset:0;stroke-opacity:1"
       d="m 2.25,2.25 0,10.5 10.5,0 0,-10.5 z m 0.6230469,0.3378906 9.2539061,-0.00781 c 0.142044,-1.199e-4 0.310788,0.1901489 0.310547,0.3320313 l -0.01563,9.1953116 c -2.42e-4,0.141883 -0.156784,0.326233 -0.298828,0.326173 l -9.2304689,-0.0039 c -0.1420436,-6e-5 -0.3164664,-0.176477 -0.3164062,-0.31836 l 0.00391,-9.2109373 C 2.5801383,2.7585081 2.7310033,2.5880106 2.8730469,2.5878906 Z"
       transform="translate(7.5,4.8622046)"
       id="rect4205"
       inkscape:connector-curvature="0"
       sodipodi:nodetypes="cccccsssssssss" />
    <rect
       style="opacity:0;fill:#14181c;fill-opacity:1;fill-rule:nonzero;stroke:none;stroke-width:0.80000001;stroke-linejoin:miter;stroke-miterlimit:4;stroke-dasharray:none;stroke-dashoffset:0;stroke-opacity:0.41012663"
       id="rect4142"
       width="20"
       height="20"
       x="10"
       y="7.3622046"
       ry="5" />
    <rect
       style="opacity:0;fill:#14181c;fill-opacity:1;fill-rule:nonzero;stroke:none;stroke-width:0.80000001;stroke-linejoin:miter;stroke-miterlimit:4;stroke-dasharray:none;stroke-dashoffset:0;stroke-opacity:1"
       id="rect4144"
       width="20"
       height="20"
       x="5"
       y="7.3622046"
       ry="5" />
    <path
       style="opacity:1;fill:#e5e5e5;fill-opacity:1;fill-rule:nonzero;stroke:none;stroke-width:0.80000001;stroke-linejoin:miter;stroke-miterlimit:4;stroke-dasharray:none;stroke-dashoffset:0;stroke-opacity:1"
       d="M 0.5 0 C 0.223 0 0 0.223 0 0.5 L 0 9.5 C 0 9.777 0.223 10 0.5 10 L 9.5 10 C 9.777 10 10 9.777 10 9.5 L 10 0.5 C 10 0.223 9.777 0 9.5 0 L 0.5 0 z M 0.5 0.125 L 9.5 0.125 C 9.70775 0.125 9.875 0.29225003 9.875 0.5 L 9.875 9.5 C 9.875 9.70775 9.70775 9.875 9.5 9.875 L 0.5 9.875 C 0.29225 9.875 0.125 9.70775 0.125 9.5 L 0.125 0.5 C 0.125 0.29225003 0.29225 0.125 0.5 0.125 z "
       transform="translate(10,7.3622046)"
       id="rect4214" />
  </g>
</svg>
