<?xml version="1.0" encoding="UTF-8" standalone="no"?>
<svg
    xmlns:dc="http://purl.org/dc/elements/1.1/"
    xmlns:cc="http://creativecommons.org/ns#"
    xmlns:rdf="http://www.w3.org/1999/02/22-rdf-syntax-ns#"
    xmlns="http://www.w3.org/2000/svg"
    xmlns:sodipodi="http://sodipodi.sourceforge.net/DTD/sodipodi-0.dtd"
    xmlns:inkscape="http://www.inkscape.org/namespaces/inkscape"
    version="1.1"
    width="24"
    height="24"
    viewBox="0 0 24 24"
    id="svg4"
    sodipodi:docname="tab_switcher_drawable_background.svg"
    inkscape:version="0.92.2 2405546, 2018-03-11"
    inkscape:export-filename="/home/michael/Workspaces/Android/ChromeLikeTabSwitcher/library/src/main/res/drawable-mdpi/tab_switcher_drawable_background.png"
    inkscape:export-xdpi="96"
    inkscape:export-ydpi="96">
  <metadata
     id="metadata10">
    <rdf:RDF>
      <cc:Work
         rdf:about="">
        <dc:format>image/svg+xml</dc:format>
        <dc:type
           rdf:resource="http://purl.org/dc/dcmitype/StillImage" />
        <dc:title />
      </cc:Work>
    </rdf:RDF>
  </metadata>
  <defs
     id="defs8" />
  <sodipodi:namedview
     pagecolor="#ffffff"
     bordercolor="#666666"
     borderopacity="1"
     objecttolerance="10"
     gridtolerance="10"
     guidetolerance="10"
     inkscape:pageopacity="0"
     inkscape:pageshadow="2"
     inkscape:window-width="1920"
     inkscape:window-height="1017"
     id="namedview6"
     showgrid="true"
     inkscape:zoom="18.716233"
     inkscape:cx="-4.004104"
     inkscape:cy="12"
     inkscape:window-x="0"
     inkscape:window-y="27"
     inkscape:window-maximized="1"
     inkscape:current-layer="svg4">
    <inkscape:grid
       type="xygrid"
       id="grid823" />
  </sodipodi:namedview>
  <path
     style="opacity:1;fill:#ffffff;fill-opacity:1;fill-rule:evenodd;stroke:none;stroke-width:0.18897639;stroke-linejoin:miter;stroke-miterlimit:4;stroke-dasharray:none;stroke-dashoffset:0;stroke-opacity:0.02352941"
     d="M 8 3.0546875 C 5.260747 3.0546875 3.0546875 5.260747 3.0546875 8 L 3.0546875 16 C 3.0546875 18.739253 5.260747 20.945312 8 20.945312 L 16 20.945312 C 18.739253 20.945312 20.945312 18.739253 20.945312 16 L 20.945312 8 C 20.945312 5.260747 18.739253 3.0546875 16 3.0546875 L 8 3.0546875 z M 8 5 L 16 5 C 17.662 5 19 6.338 19 8 L 19 16 C 19 17.662 17.662 19 16 19 L 8 19 C 6.338 19 5 17.662 5 16 L 5 8 C 5 6.338 6.338 5 8 5 z "
     id="rect816" />
</svg>
